<mxfile host="app.diagrams.net" modified="2021-07-14T06:56:58.696Z" agent="5.0 (Macintosh; Intel Mac OS X 10_15_2) AppleWebKit/537.36 (KHTML, like Gecko) Chrome/80.0.3987.100 Safari/537.36" etag="OOpFPsIvCrBUVC-o9NIN" version="14.8.0" type="github" pages="3">
  <diagram id="aH4e2wyQSKIq5Tm5kMq8" name="content">
    <mxGraphModel dx="1398" dy="648" grid="1" gridSize="10" guides="1" tooltips="1" connect="1" arrows="1" fold="1" page="1" pageScale="1" pageWidth="1169" pageHeight="827" math="0" shadow="0">
      <root>
        <mxCell id="0" />
        <mxCell id="1" parent="0" />
        <mxCell id="pGXKdQm7w8B78Xst_rAh-1" value="&lt;meta charset=&quot;utf-8&quot;&gt;&lt;p class=&quot;toc_title&quot; style=&quot;box-sizing: inherit; border: 0px; font-size: 19px; font-style: normal; font-weight: 700; margin: 0px; outline: 0px; padding: 0px; vertical-align: baseline; text-align: center; color: rgb(0, 0, 0); letter-spacing: normal; text-indent: 0px; text-transform: none; word-spacing: 0px;&quot;&gt;Table of Content&lt;/p&gt;&lt;ul class=&quot;toc_list&quot; style=&quot;box-sizing: inherit; border: 0px; font-size: 19px; font-style: normal; font-weight: 400; margin: 1em 0px 0px; outline: 0px; padding: 0px; vertical-align: baseline; list-style: none; background: 0px 0px; color: rgb(0, 0, 0); letter-spacing: normal; text-indent: 0px; text-transform: none; word-spacing: 0px;&quot;&gt;&lt;li style=&quot;box-sizing: inherit ; border: 0px ; font-size: 19px ; font-style: inherit ; font-weight: inherit ; margin: 0px ; outline: 0px ; padding: 0px ; vertical-align: baseline ; background: 0px 0px ; list-style: none&quot;&gt;&lt;a href=&quot;https://www.tektutorialshub.com/angular-tutorial/#what-is-angular&quot; style=&quot;box-sizing: inherit ; border-top: 0px ; border-right: 0px ; border-bottom: none ; border-left: 0px ; font-size: 19px ; font-style: inherit ; font-weight: inherit ; margin: 0px ; outline: 0px ; padding: 0px ; vertical-align: baseline ; background-color: transparent ; text-decoration: none ; color: rgb(1 , 112 , 185) ; transition: all 0.2s linear 0s ; text-shadow: none&quot;&gt;What is Angular&lt;/a&gt;&lt;ul style=&quot;box-sizing: inherit ; border: 0px ; font-size: 19px ; font-style: inherit ; font-weight: inherit ; margin: 0px 0px 0px 1.5em ; outline: 0px ; padding: 0px ; vertical-align: baseline ; list-style: none ; background: 0px 0px&quot;&gt;&lt;li style=&quot;box-sizing: inherit ; border: 0px ; font-size: 19px ; font-style: inherit ; font-weight: inherit ; margin: 0px ; outline: 0px ; padding: 0px ; vertical-align: baseline ; background: 0px 0px ; list-style: none&quot;&gt;&lt;a href=&quot;https://www.tektutorialshub.com/angular-tutorial/#angular-versions&quot; style=&quot;box-sizing: inherit ; border-top: 0px ; border-right: 0px ; border-bottom: none ; border-left: 0px ; font-size: 19px ; font-style: inherit ; font-weight: inherit ; margin: 0px ; outline: 0px ; padding: 0px ; vertical-align: baseline ; background-color: transparent ; text-decoration: none ; color: rgb(1 , 112 , 185) ; transition: all 0.2s linear 0s ; text-shadow: none&quot;&gt;Angular Versions&lt;/a&gt;&lt;ul style=&quot;box-sizing: inherit ; border: 0px ; font-size: 19px ; font-style: inherit ; font-weight: inherit ; margin: 0px 0px 0px 1.5em ; outline: 0px ; padding: 0px ; vertical-align: baseline ; list-style: none ; background: 0px 0px&quot;&gt;&lt;li style=&quot;box-sizing: inherit ; border: 0px ; font-size: 19px ; font-style: inherit ; font-weight: inherit ; margin: 0px ; outline: 0px ; padding: 0px ; vertical-align: baseline ; background: 0px 0px ; list-style: none&quot;&gt;&lt;a href=&quot;https://www.tektutorialshub.com/angular-tutorial/#version-history&quot; style=&quot;box-sizing: inherit ; border-top: 0px ; border-right: 0px ; border-bottom: none ; border-left: 0px ; font-size: 19px ; font-style: inherit ; font-weight: inherit ; margin: 0px ; outline: 0px ; padding: 0px ; vertical-align: baseline ; background-color: transparent ; text-decoration: none ; color: rgb(1 , 112 , 185) ; transition: all 0.2s linear 0s ; text-shadow: none&quot;&gt;Version History&lt;/a&gt;&lt;/li&gt;&lt;/ul&gt;&lt;/li&gt;&lt;/ul&gt;&lt;/li&gt;&lt;li style=&quot;box-sizing: inherit ; border: 0px ; font-size: 19px ; font-style: inherit ; font-weight: inherit ; margin: 0px ; outline: 0px ; padding: 0px ; vertical-align: baseline ; background: 0px 0px ; list-style: none&quot;&gt;&lt;a href=&quot;https://www.tektutorialshub.com/angular-tutorial/#prerequisitesnbsp&quot; style=&quot;box-sizing: inherit ; border-top: 0px ; border-right: 0px ; border-bottom: none ; border-left: 0px ; font-size: 19px ; font-style: inherit ; font-weight: inherit ; margin: 0px ; outline: 0px ; padding: 0px ; vertical-align: baseline ; background-color: transparent ; text-decoration: none ; color: rgb(1 , 112 , 185) ; transition: all 0.2s linear 0s ; text-shadow: none&quot;&gt;Prerequisites&amp;nbsp;&lt;/a&gt;&lt;/li&gt;&lt;li style=&quot;box-sizing: inherit ; border: 0px ; font-size: 19px ; font-style: inherit ; font-weight: inherit ; margin: 0px ; outline: 0px ; padding: 0px ; vertical-align: baseline ; background: 0px 0px ; list-style: none&quot;&gt;&lt;a href=&quot;https://www.tektutorialshub.com/angular-tutorial/#angular-tutorial&quot; style=&quot;box-sizing: inherit ; border-top: 0px ; border-right: 0px ; border-bottom: none ; border-left: 0px ; font-size: 19px ; font-style: inherit ; font-weight: inherit ; margin: 0px ; outline: 0px ; padding: 0px ; vertical-align: baseline ; background-color: transparent ; text-decoration: none ; color: rgb(1 , 112 , 185) ; transition: all 0.2s linear 0s ; text-shadow: none&quot;&gt;Angular Tutorial&lt;/a&gt;&lt;ul style=&quot;box-sizing: inherit ; border: 0px ; font-size: 19px ; font-style: inherit ; font-weight: inherit ; margin: 0px 0px 0px 1.5em ; outline: 0px ; padding: 0px ; vertical-align: baseline ; list-style: none ; background: 0px 0px&quot;&gt;&lt;li style=&quot;box-sizing: inherit ; border: 0px ; font-size: 19px ; font-style: inherit ; font-weight: inherit ; margin: 0px ; outline: 0px ; padding: 0px ; vertical-align: baseline ; background: 0px 0px ; list-style: none&quot;&gt;&lt;a href=&quot;https://www.tektutorialshub.com/angular-tutorial/#introduction-to-angular&quot; style=&quot;box-sizing: inherit ; border-top: 0px ; border-right: 0px ; border-bottom: none ; border-left: 0px ; font-size: 19px ; font-style: inherit ; font-weight: inherit ; margin: 0px ; outline: 0px ; padding: 0px ; vertical-align: baseline ; background-color: transparent ; text-decoration: none ; color: rgb(1 , 112 , 185) ; transition: all 0.2s linear 0s ; text-shadow: none&quot;&gt;Introduction to Angular&lt;/a&gt;&lt;/li&gt;&lt;li style=&quot;box-sizing: inherit ; border: 0px ; font-size: 19px ; font-style: inherit ; font-weight: inherit ; margin: 0px ; outline: 0px ; padding: 0px ; vertical-align: baseline ; background: 0px 0px ; list-style: none&quot;&gt;&lt;a href=&quot;https://www.tektutorialshub.com/angular-tutorial/#getting-started-with-angular-tutorial&quot; style=&quot;box-sizing: inherit ; border-top: 0px ; border-right: 0px ; border-bottom: none ; border-left: 0px ; font-size: 19px ; font-style: inherit ; font-weight: inherit ; margin: 0px ; outline: 0px ; padding: 0px ; vertical-align: baseline ; background-color: transparent ; text-decoration: none ; color: rgb(1 , 112 , 185) ; transition: all 0.2s linear 0s ; text-shadow: none&quot;&gt;Getting Started With Angular Tutorial&lt;/a&gt;&lt;/li&gt;&lt;li style=&quot;box-sizing: inherit ; border: 0px ; font-size: 19px ; font-style: inherit ; font-weight: inherit ; margin: 0px ; outline: 0px ; padding: 0px ; vertical-align: baseline ; background: 0px 0px ; list-style: none&quot;&gt;&lt;a href=&quot;https://www.tektutorialshub.com/angular-tutorial/#components&quot; style=&quot;box-sizing: inherit ; border-top: 0px ; border-right: 0px ; border-bottom: none ; border-left: 0px ; font-size: 19px ; font-style: inherit ; font-weight: inherit ; margin: 0px ; outline: 0px ; padding: 0px ; vertical-align: baseline ; background-color: transparent ; text-decoration: none ; color: rgb(1 , 112 , 185) ; transition: all 0.2s linear 0s ; text-shadow: none&quot;&gt;Components&lt;/a&gt;&lt;/li&gt;&lt;li style=&quot;box-sizing: inherit ; border: 0px ; font-size: 19px ; font-style: inherit ; font-weight: inherit ; margin: 0px ; outline: 0px ; padding: 0px ; vertical-align: baseline ; background: 0px 0px ; list-style: none&quot;&gt;&lt;a href=&quot;https://www.tektutorialshub.com/angular-tutorial/#directives&quot; style=&quot;box-sizing: inherit ; border-top: 0px ; border-right: 0px ; border-bottom: none ; border-left: 0px ; font-size: 19px ; font-style: inherit ; font-weight: inherit ; margin: 0px ; outline: 0px ; padding: 0px ; vertical-align: baseline ; background-color: transparent ; text-decoration: none ; color: rgb(1 , 112 , 185) ; transition: all 0.2s linear 0s ; text-shadow: none&quot;&gt;Directives&lt;/a&gt;&lt;/li&gt;&lt;li style=&quot;box-sizing: inherit ; border: 0px ; font-size: 19px ; font-style: inherit ; font-weight: inherit ; margin: 0px ; outline: 0px ; padding: 0px ; vertical-align: baseline ; background: 0px 0px ; list-style: none&quot;&gt;&lt;a href=&quot;https://www.tektutorialshub.com/angular-tutorial/#pipes&quot; style=&quot;box-sizing: inherit ; border-top: 0px ; border-right: 0px ; border-bottom: none ; border-left: 0px ; font-size: 19px ; font-style: inherit ; font-weight: inherit ; margin: 0px ; outline: 0px ; padding: 0px ; vertical-align: baseline ; background-color: transparent ; text-decoration: none ; color: rgb(1 , 112 , 185) ; transition: all 0.2s linear 0s ; text-shadow: none&quot;&gt;Pipes&lt;/a&gt;&lt;/li&gt;&lt;li style=&quot;box-sizing: inherit ; border: 0px ; font-size: 19px ; font-style: inherit ; font-weight: inherit ; margin: 0px ; outline: 0px ; padding: 0px ; vertical-align: baseline ; background: 0px 0px ; list-style: none&quot;&gt;&lt;a href=&quot;https://www.tektutorialshub.com/angular-tutorial/#component-communication&quot; style=&quot;box-sizing: inherit ; border-top: 0px ; border-right: 0px ; border-bottom: none ; border-left: 0px ; font-size: 19px ; font-style: inherit ; font-weight: inherit ; margin: 0px ; outline: 0px ; padding: 0px ; vertical-align: baseline ; background-color: transparent ; text-decoration: none ; color: rgb(1 , 112 , 185) ; transition: all 0.2s linear 0s ; text-shadow: none&quot;&gt;Component Communication&lt;/a&gt;&lt;/li&gt;&lt;li style=&quot;box-sizing: inherit ; border: 0px ; font-size: 19px ; font-style: inherit ; font-weight: inherit ; margin: 0px ; outline: 0px ; padding: 0px ; vertical-align: baseline ; background: 0px 0px ; list-style: none&quot;&gt;&lt;a href=&quot;https://www.tektutorialshub.com/angular-tutorial/#component-life-cycle-hook&quot; style=&quot;box-sizing: inherit ; border-top: 0px ; border-right: 0px ; border-bottom: none ; border-left: 0px ; font-size: 19px ; font-style: inherit ; font-weight: inherit ; margin: 0px ; outline: 0px ; padding: 0px ; vertical-align: baseline ; background-color: transparent ; text-decoration: none ; color: rgb(1 , 112 , 185) ; transition: all 0.2s linear 0s ; text-shadow: none&quot;&gt;Component Life Cycle Hook&lt;/a&gt;&lt;/li&gt;&lt;li style=&quot;box-sizing: inherit ; border: 0px ; font-size: 19px ; font-style: inherit ; font-weight: inherit ; margin: 0px ; outline: 0px ; padding: 0px ; vertical-align: baseline ; background: 0px 0px ; list-style: none&quot;&gt;&lt;a href=&quot;https://www.tektutorialshub.com/angular-tutorial/#angular-forms&quot; style=&quot;box-sizing: inherit ; border-top: 0px ; border-right: 0px ; border-bottom: none ; border-left: 0px ; font-size: 19px ; font-style: inherit ; font-weight: inherit ; margin: 0px ; outline: 0px ; padding: 0px ; vertical-align: baseline ; background-color: transparent ; text-decoration: none ; color: rgb(1 , 112 , 185) ; transition: all 0.2s linear 0s ; text-shadow: none&quot;&gt;Angular Forms&lt;/a&gt;&lt;/li&gt;&lt;li style=&quot;box-sizing: inherit ; border: 0px ; font-size: 19px ; font-style: inherit ; font-weight: inherit ; margin: 0px ; outline: 0px ; padding: 0px ; vertical-align: baseline ; background: 0px 0px ; list-style: none&quot;&gt;&lt;a href=&quot;https://www.tektutorialshub.com/angular-tutorial/#services-dependency-injection&quot; style=&quot;box-sizing: inherit ; border-top: 0px ; border-right: 0px ; border-bottom: none ; border-left: 0px ; font-size: 19px ; font-style: inherit ; font-weight: inherit ; margin: 0px ; outline: 0px ; padding: 0px ; vertical-align: baseline ; background-color: transparent ; text-decoration: none ; color: rgb(1 , 112 , 185) ; transition: all 0.2s linear 0s ; text-shadow: none&quot;&gt;Services &amp;amp; Dependency Injection&lt;/a&gt;&lt;/li&gt;&lt;li style=&quot;box-sizing: inherit ; border: 0px ; font-size: 19px ; font-style: inherit ; font-weight: inherit ; margin: 0px ; outline: 0px ; padding: 0px ; vertical-align: baseline ; background: 0px 0px ; list-style: none&quot;&gt;&lt;a href=&quot;https://www.tektutorialshub.com/angular-tutorial/#angular-forms-validation&quot; style=&quot;box-sizing: inherit ; border-top: 0px ; border-right: 0px ; border-bottom: none ; border-left: 0px ; font-size: 19px ; font-style: inherit ; font-weight: inherit ; margin: 0px ; outline: 0px ; padding: 0px ; vertical-align: baseline ; background-color: transparent ; text-decoration: none ; color: rgb(1 , 112 , 185) ; transition: all 0.2s linear 0s ; text-shadow: none&quot;&gt;Angular Forms Validation&lt;/a&gt;&lt;/li&gt;&lt;li style=&quot;box-sizing: inherit ; border: 0px ; font-size: 19px ; font-style: inherit ; font-weight: inherit ; margin: 0px ; outline: 0px ; padding: 0px ; vertical-align: baseline ; background: 0px 0px ; list-style: none&quot;&gt;&lt;a href=&quot;https://www.tektutorialshub.com/angular-tutorial/#httpnbsp&quot; style=&quot;box-sizing: inherit ; border-top: 0px ; border-right: 0px ; border-bottom: none ; border-left: 0px ; font-size: 19px ; font-style: inherit ; font-weight: inherit ; margin: 0px ; outline: 0px ; padding: 0px ; vertical-align: baseline ; background-color: transparent ; text-decoration: none ; color: rgb(1 , 112 , 185) ; transition: all 0.2s linear 0s ; text-shadow: none&quot;&gt;HTTP&amp;nbsp;&lt;/a&gt;&lt;/li&gt;&lt;li style=&quot;box-sizing: inherit ; border: 0px ; font-size: 19px ; font-style: inherit ; font-weight: inherit ; margin: 0px ; outline: 0px ; padding: 0px ; vertical-align: baseline ; background: 0px 0px ; list-style: none&quot;&gt;&lt;a href=&quot;https://www.tektutorialshub.com/angular-tutorial/#angular-router&quot; style=&quot;box-sizing: inherit ; border-top: 0px ; border-right: 0px ; border-bottom: none ; border-left: 0px ; font-size: 19px ; font-style: inherit ; font-weight: inherit ; margin: 0px ; outline: 0px ; padding: 0px ; vertical-align: baseline ; background-color: transparent ; text-decoration: none ; color: rgb(1 , 112 , 185) ; transition: all 0.2s linear 0s ; text-shadow: none&quot;&gt;Angular Router&lt;/a&gt;&lt;/li&gt;&lt;li style=&quot;box-sizing: inherit ; border: 0px ; font-size: 19px ; font-style: inherit ; font-weight: inherit ; margin: 0px ; outline: 0px ; padding: 0px ; vertical-align: baseline ; background: 0px 0px ; list-style: none&quot;&gt;&lt;a href=&quot;https://www.tektutorialshub.com/angular-tutorial/#angular-module&quot; style=&quot;box-sizing: inherit ; border-top: 0px ; border-right: 0px ; border-bottom: none ; border-left: 0px ; font-size: 19px ; font-style: inherit ; font-weight: inherit ; margin: 0px ; outline: 0px ; padding: 0px ; vertical-align: baseline ; background-color: transparent ; text-decoration: none ; color: rgb(1 , 112 , 185) ; transition: all 0.2s linear 0s ; text-shadow: none&quot;&gt;Angular Module&lt;/a&gt;&lt;/li&gt;&lt;li style=&quot;box-sizing: inherit ; border: 0px ; font-size: 19px ; font-style: inherit ; font-weight: inherit ; margin: 0px ; outline: 0px ; padding: 0px ; vertical-align: baseline ; background: 0px 0px ; list-style: none&quot;&gt;&lt;a href=&quot;https://www.tektutorialshub.com/angular-tutorial/#advanced-components&quot; style=&quot;box-sizing: inherit ; border-top: 0px ; border-right: 0px ; border-bottom: none ; border-left: 0px ; font-size: 19px ; font-style: inherit ; font-weight: inherit ; margin: 0px ; outline: 0px ; padding: 0px ; vertical-align: baseline ; background-color: transparent ; text-decoration: none ; color: rgb(1 , 112 , 185) ; transition: all 0.2s linear 0s ; text-shadow: none&quot;&gt;Advanced Components&lt;/a&gt;&lt;/li&gt;&lt;li style=&quot;box-sizing: inherit ; border: 0px ; font-size: 19px ; font-style: inherit ; font-weight: inherit ; margin: 0px ; outline: 0px ; padding: 0px ; vertical-align: baseline ; background: 0px 0px ; list-style: none&quot;&gt;&lt;a href=&quot;https://www.tektutorialshub.com/angular-tutorial/#observable-in-angular&quot; style=&quot;box-sizing: inherit ; border-top: 0px ; border-right: 0px ; border-bottom: none ; border-left: 0px ; font-size: 19px ; font-style: inherit ; font-weight: inherit ; margin: 0px ; outline: 0px ; padding: 0px ; vertical-align: baseline ; background-color: transparent ; text-decoration: none ; color: rgb(1 , 112 , 185) ; transition: all 0.2s linear 0s ; text-shadow: none&quot;&gt;Observable in Angular&lt;/a&gt;&lt;/li&gt;&lt;li style=&quot;box-sizing: inherit ; border: 0px ; font-size: 19px ; font-style: inherit ; font-weight: inherit ; margin: 0px ; outline: 0px ; padding: 0px ; vertical-align: baseline ; background: 0px 0px ; list-style: none&quot;&gt;&lt;a href=&quot;https://www.tektutorialshub.com/angular-tutorial/#styling-the-application&quot; style=&quot;box-sizing: inherit ; border-top: 0px ; border-right: 0px ; border-bottom: none ; border-left: 0px ; font-size: 19px ; font-style: inherit ; font-weight: inherit ; margin: 0px ; outline: 0px ; padding: 0px ; vertical-align: baseline ; background-color: transparent ; text-decoration: none ; color: rgb(1 , 112 , 185) ; transition: all 0.2s linear 0s ; text-shadow: none&quot;&gt;Styling the Application&lt;/a&gt;&lt;/li&gt;&lt;li style=&quot;box-sizing: inherit ; border: 0px ; font-size: 19px ; font-style: inherit ; font-weight: inherit ; margin: 0px ; outline: 0px ; padding: 0px ; vertical-align: baseline ; background: 0px 0px ; list-style: none&quot;&gt;&lt;a href=&quot;https://www.tektutorialshub.com/angular-tutorial/#others&quot; style=&quot;box-sizing: inherit ; border-top: 0px ; border-right: 0px ; border-bottom: none ; border-left: 0px ; font-size: 19px ; font-style: inherit ; font-weight: inherit ; margin: 0px ; outline: 0px ; padding: 0px ; vertical-align: baseline ; background-color: transparent ; text-decoration: none ; color: rgb(1 , 112 , 185) ; transition: all 0.2s linear 0s ; text-shadow: none&quot;&gt;Others&lt;/a&gt;&lt;/li&gt;&lt;li style=&quot;box-sizing: inherit ; border: 0px ; font-size: 19px ; font-style: inherit ; font-weight: inherit ; margin: 0px ; outline: 0px ; padding: 0px ; vertical-align: baseline ; background: 0px 0px ; list-style: none&quot;&gt;&lt;a href=&quot;https://www.tektutorialshub.com/angular-tutorial/#configuration&quot; style=&quot;box-sizing: inherit ; border-top: 0px ; border-right: 0px ; border-bottom: none ; border-left: 0px ; font-size: 19px ; font-style: inherit ; font-weight: inherit ; margin: 0px ; outline: 0px ; padding: 0px ; vertical-align: baseline ; background-color: transparent ; text-decoration: none ; color: rgb(1 , 112 , 185) ; transition: all 0.2s linear 0s ; text-shadow: none&quot;&gt;Configuration&lt;/a&gt;&lt;/li&gt;&lt;li style=&quot;box-sizing: inherit ; border: 0px ; font-size: 19px ; font-style: inherit ; font-weight: inherit ; margin: 0px ; outline: 0px ; padding: 0px ; vertical-align: baseline ; background: 0px 0px ; list-style: none&quot;&gt;&lt;a href=&quot;https://www.tektutorialshub.com/angular-tutorial/#handling-errors&quot; style=&quot;box-sizing: inherit ; border-top: 0px ; border-right: 0px ; border-bottom: none ; border-left: 0px ; font-size: 19px ; font-style: inherit ; font-weight: inherit ; margin: 0px ; outline: 0px ; padding: 0px ; vertical-align: baseline ; background-color: transparent ; text-decoration: none ; color: rgb(1 , 112 , 185) ; transition: all 0.2s linear 0s ; text-shadow: none&quot;&gt;Handling Errors&lt;/a&gt;&lt;/li&gt;&lt;li style=&quot;box-sizing: inherit ; border: 0px ; font-size: 19px ; font-style: inherit ; font-weight: inherit ; margin: 0px ; outline: 0px ; padding: 0px ; vertical-align: baseline ; background: 0px 0px ; list-style: none&quot;&gt;&lt;a href=&quot;https://www.tektutorialshub.com/angular-tutorial/#angular-cli&quot; style=&quot;box-sizing: inherit ; border-top: 0px ; border-right: 0px ; border-bottom: none ; border-left: 0px ; font-size: 19px ; font-style: inherit ; font-weight: inherit ; margin: 0px ; outline: 0px ; padding: 0px ; vertical-align: baseline ; background-color: transparent ; text-decoration: none ; color: rgb(1 , 112 , 185) ; transition: all 0.2s linear 0s ; text-shadow: none&quot;&gt;Angular CLI&lt;/a&gt;&lt;/li&gt;&lt;li style=&quot;box-sizing: inherit ; border: 0px ; font-size: 19px ; font-style: inherit ; font-weight: inherit ; margin: 0px ; outline: 0px ; padding: 0px ; vertical-align: baseline ; background: 0px 0px ; list-style: none&quot;&gt;&lt;a href=&quot;https://www.tektutorialshub.com/angular-tutorial/#seo-angular&quot; style=&quot;box-sizing: inherit ; border-top: 0px ; border-right: 0px ; border-bottom: none ; border-left: 0px ; font-size: 19px ; font-style: inherit ; font-weight: inherit ; margin: 0px ; outline: 0px ; padding: 0px ; vertical-align: baseline ; background-color: transparent ; text-decoration: none ; color: rgb(1 , 112 , 185) ; transition: all 0.2s linear 0s ; text-shadow: none&quot;&gt;SEO &amp;amp; Angular&lt;/a&gt;&lt;/li&gt;&lt;li style=&quot;box-sizing: inherit ; border: 0px ; font-size: 19px ; font-style: inherit ; font-weight: inherit ; margin: 0px ; outline: 0px ; padding: 0px ; vertical-align: baseline ; background: 0px 0px ; list-style: none&quot;&gt;&lt;a href=&quot;https://www.tektutorialshub.com/angular-tutorial/#angular-universal&quot; style=&quot;box-sizing: inherit ; border-top: 0px ; border-right: 0px ; border-bottom: none ; border-left: 0px ; font-size: 19px ; font-style: inherit ; font-weight: inherit ; margin: 0px ; outline: 0px ; padding: 0px ; vertical-align: baseline ; background-color: transparent ; text-decoration: none ; color: rgb(1 , 112 , 185) ; transition: all 0.2s linear 0s ; text-shadow: none&quot;&gt;Angular Universal&lt;/a&gt;&lt;/li&gt;&lt;li style=&quot;box-sizing: inherit ; border: 0px ; font-size: 19px ; font-style: inherit ; font-weight: inherit ; margin: 0px ; outline: 0px ; padding: 0px ; vertical-align: baseline ; background: 0px 0px ; list-style: none&quot;&gt;&lt;a href=&quot;https://www.tektutorialshub.com/angular-tutorial/#building-hosting&quot; style=&quot;box-sizing: inherit ; border-top: 0px ; border-right: 0px ; border-bottom: none ; border-left: 0px ; font-size: 19px ; font-style: inherit ; font-weight: inherit ; margin: 0px ; outline: 0px ; padding: 0px ; vertical-align: baseline ; background-color: transparent ; text-decoration: none ; color: rgb(1 , 112 , 185) ; transition: all 0.2s linear 0s ; text-shadow: none&quot;&gt;Building &amp;amp; Hosting&lt;/a&gt;&lt;/li&gt;&lt;li style=&quot;box-sizing: inherit ; border: 0px ; font-size: 19px ; font-style: inherit ; font-weight: inherit ; margin: 0px ; outline: 0px ; padding: 0px ; vertical-align: baseline ; background: 0px 0px ; list-style: none&quot;&gt;&lt;a href=&quot;https://www.tektutorialshub.com/angular-tutorial/#angular-resources&quot; style=&quot;box-sizing: inherit ; border-top: 0px ; border-right: 0px ; border-bottom: none ; border-left: 0px ; font-size: 19px ; font-style: inherit ; font-weight: inherit ; margin: 0px ; outline: 0px ; padding: 0px ; vertical-align: baseline ; background-color: transparent ; text-decoration: none ; color: rgb(1 , 112 , 185) ; transition: all 0.2s linear 0s ; text-shadow: none&quot;&gt;Angular Resources&lt;/a&gt;&lt;/li&gt;&lt;li style=&quot;box-sizing: inherit ; border: 0px ; font-size: 19px ; font-style: inherit ; font-weight: inherit ; margin: 0px ; outline: 0px ; padding: 0px ; vertical-align: baseline ; background: 0px 0px ; list-style: none&quot;&gt;&lt;a href=&quot;https://www.tektutorialshub.com/angular-tutorial/#angular-how-to-guides&quot; style=&quot;box-sizing: inherit ; border-top: 0px ; border-right: 0px ; border-bottom: none ; border-left: 0px ; font-size: 19px ; font-style: inherit ; font-weight: inherit ; margin: 0px ; outline: 0px ; padding: 0px ; vertical-align: baseline ; background-color: transparent ; text-decoration: none ; color: rgb(1 , 112 , 185) ; transition: all 0.2s linear 0s ; text-shadow: none&quot;&gt;Angular how-to guides&lt;/a&gt;&lt;/li&gt;&lt;li style=&quot;box-sizing: inherit ; border: 0px ; font-size: 19px ; font-style: inherit ; font-weight: inherit ; margin: 0px ; outline: 0px ; padding: 0px ; vertical-align: baseline ; background: 0px 0px ; list-style: none&quot;&gt;&lt;a href=&quot;https://www.tektutorialshub.com/angular-tutorial/#module-loaders&quot; style=&quot;box-sizing: inherit ; border-top: 0px ; border-right: 0px ; border-bottom: none ; border-left: 0px ; font-size: 19px ; font-style: inherit ; font-weight: inherit ; margin: 0px ; outline: 0px ; padding: 0px ; vertical-align: baseline ; background-color: transparent ; text-decoration: none ; color: rgb(1 , 112 , 185) ; transition: all 0.2s linear 0s ; text-shadow: none&quot;&gt;Module Loaders&lt;/a&gt;&lt;/li&gt;&lt;/ul&gt;&lt;/li&gt;&lt;/ul&gt;" style="text;whiteSpace=wrap;html=1;" vertex="1" parent="1">
          <mxGeometry x="70" y="20" width="830" height="750" as="geometry" />
        </mxCell>
      </root>
    </mxGraphModel>
  </diagram>
  <diagram id="nei2z6a1dOv-aYbANXEr" name="architecure">
    <mxGraphModel dx="1398" dy="648" grid="1" gridSize="10" guides="1" tooltips="1" connect="1" arrows="1" fold="1" page="1" pageScale="1" pageWidth="1169" pageHeight="827" math="0" shadow="0">
      <root>
        <mxCell id="jCv_f7iNkOVhFn-Z_VQX-0" />
        <mxCell id="jCv_f7iNkOVhFn-Z_VQX-1" parent="jCv_f7iNkOVhFn-Z_VQX-0" />
        <mxCell id="jCv_f7iNkOVhFn-Z_VQX-2" value="" style="shape=image;verticalLabelPosition=bottom;labelBackgroundColor=#ffffff;verticalAlign=top;aspect=fixed;imageAspect=0;image=https://angular.io/generated/images/guide/architecture/overview2.png;" vertex="1" parent="jCv_f7iNkOVhFn-Z_VQX-1">
          <mxGeometry x="150" y="110" width="886.36" height="450" as="geometry" />
        </mxCell>
        <UserObject label="https://angular.io/docs" link="https://angular.io/docs" id="o5hHw8NyixWOrJ4x4RHX-0">
          <mxCell style="text;whiteSpace=wrap;html=1;" vertex="1" parent="jCv_f7iNkOVhFn-Z_VQX-1">
            <mxGeometry x="40" y="20" width="410" height="30" as="geometry" />
          </mxCell>
        </UserObject>
      </root>
    </mxGraphModel>
  </diagram>
  <diagram id="BEiF3wPA1BgGT0evzaox" name="angular doc">
    <mxGraphModel dx="1398" dy="648" grid="1" gridSize="10" guides="1" tooltips="1" connect="1" arrows="1" fold="1" page="1" pageScale="1" pageWidth="1169" pageHeight="827" math="0" shadow="0">
      <root>
        <mxCell id="SVKwN3JezJcUcCC6vcUd-0" />
        <mxCell id="SVKwN3JezJcUcCC6vcUd-1" parent="SVKwN3JezJcUcCC6vcUd-0" />
        <UserObject label="https://angular.io/docs" link="https://angular.io/docs" id="SVKwN3JezJcUcCC6vcUd-2">
          <mxCell style="text;whiteSpace=wrap;html=1;" vertex="1" parent="SVKwN3JezJcUcCC6vcUd-1">
            <mxGeometry x="10" y="10" width="410" height="30" as="geometry" />
          </mxCell>
        </UserObject>
      </root>
    </mxGraphModel>
  </diagram>
</mxfile>
